<?xml version="1.0" encoding="UTF-8" standalone="no"?>
<svg
   xmlns:dc="http://purl.org/dc/elements/1.1/"
   xmlns:cc="http://creativecommons.org/ns#"
   xmlns:rdf="http://www.w3.org/1999/02/22-rdf-syntax-ns#"
   xmlns:svg="http://www.w3.org/2000/svg"
   xmlns="http://www.w3.org/2000/svg"
   xmlns:xlink="http://www.w3.org/1999/xlink"
   xmlns:sodipodi="http://sodipodi.sourceforge.net/DTD/sodipodi-0.dtd"
   xmlns:inkscape="http://www.inkscape.org/namespaces/inkscape"
   version="1.1"
   id="Content"
   x="0px"
   y="0px"
   width="168"
   height="168"
   viewBox="0 0 168 168"
   enable-background="new 0 0 192 192"
   xml:space="preserve"
   inkscape:version="0.91 r13725"
   sodipodi:docname="calendar.svg"><metadata
     id="metadata3598"><rdf:RDF><cc:Work
         rdf:about=""><dc:format>image/svg+xml</dc:format><dc:type
           rdf:resource="http://purl.org/dc/dcmitype/StillImage" /><dc:title></dc:title></cc:Work></rdf:RDF></metadata><defs
     id="defs3596" /><sodipodi:namedview
     pagecolor="#ffffff"
     bordercolor="#666666"
     borderopacity="1"
     objecttolerance="10"
     gridtolerance="10"
     guidetolerance="10"
     inkscape:pageopacity="0"
     inkscape:pageshadow="2"
     inkscape:window-width="2560"
     inkscape:window-height="1563"
     id="namedview3594"
     showgrid="false"
     fit-margin-top="0"
     fit-margin-left="0"
     fit-margin-right="0"
     fit-margin-bottom="0"
     inkscape:zoom="6.65625"
     inkscape:cx="96.018779"
     inkscape:cy="84"
     inkscape:window-x="0"
     inkscape:window-y="0"
     inkscape:window-maximized="0"
     inkscape:current-layer="Content" /><g
     id="g3488"
     transform="translate(-12,-12)"><g
       id="g3490"><g
         id="g3492"><defs
           id="defs3494"><path
             id="SVGID_11_"
             d="m 180,48 c 0,-5.22 -3.34,-9.65 -8,-11.3 L 172,24 c 0,-6.63 -5.37,-12 -12,-12 L 32,12 c -6.63,0 -12,5.37 -12,12 l 0.03,12.68 C 15.36,38.32 12,42.76 12,48 c 0,0.56 0.04,1.11 0.11,1.64 L 20,108 l 0,0 -3.97,59.17 C 16.01,167.45 16,167.72 16,168 c 0,6.63 5.37,12 12,12 l 136,0 c 6.63,0 12,-5.37 12,-12 0,-0.28 -0.01,-0.55 -0.03,-0.83 L 172,108 179.89,49.64 C 179.96,49.11 180,48.56 180,48 Z"
             inkscape:connector-curvature="0" /></defs><clipPath
           id="SVGID_1_"><use
             xlink:href="#SVGID_11_"
             overflow="visible"
             id="use3498"
             style="overflow:visible"
             x="0"
             y="0"
             width="100%"
             height="100%" /></clipPath><path
           clip-path="url(#SVGID_1_)"
           d="M 160,12 32,12 c -6.63,0 -12,5.37 -12,12 l 0.23,84 151.77,0 0,-84 c 0,-6.63 -5.37,-12 -12,-12 z"
           id="path3500"
           inkscape:connector-curvature="0"
           style="fill:#c2c2c2" /><g
           clip-path="url(#SVGID_1_)"
           id="g3502"><g
             id="g3504"><path
               d="M 168,36 24,36 c -6.63,0 -12,5.37 -12,12 0,0.56 0.04,1.11 0.11,1.64 L 20,108 l 152,0 7.89,-58.36 C 179.96,49.1 180,48.55 180,48 180,41.37 174.63,36 168,36 Z"
               id="path3506"
               inkscape:connector-curvature="0"
               style="fill:#3367d6" /></g><path
             d="M 168,36 24,36 c -6.63,0 -12,5.37 -12,12 0,0.56 0.04,1.11 0.11,1.64 L 20,108 l 152,0 7.89,-58.36 C 179.96,49.1 180,48.55 180,48 180,41.37 174.63,36 168,36 Z"
             id="path3508"
             inkscape:connector-curvature="0"
             style="opacity:0.5;fill:#2a56c6" /></g><path
           clip-path="url(#SVGID_1_)"
           d="M 175.97,167.17 172,108 20,108 16.03,167.17 C 16.01,167.45 16,167.72 16,168 c 0,6.63 5.37,12 12,12 l 136,0 c 6.63,0 12,-5.37 12,-12 0,-0.28 -0.01,-0.55 -0.03,-0.83 z"
           id="path3510"
           inkscape:connector-curvature="0"
           style="fill:#4285f4" /><linearGradient
           id="SVGID_2_"
           gradientUnits="userSpaceOnUse"
           x1="59.375"
           y1="69.375"
           x2="131.25281"
           y2="141.2527"><stop
             offset="0"
             style="stop-color:#1A237E;stop-opacity:0.2"
             id="stop3513" /><stop
             offset="1"
             style="stop-color:#1A237E;stop-opacity:0.02"
             id="stop3515" /></linearGradient><polygon
           clip-path="url(#SVGID_1_)"
           points="176,108 20,108 92,180 176,180 "
           id="polygon3517"
           style="fill:url(#SVGID_2_)" /><path
           clip-path="url(#SVGID_1_)"
           d="m 24,37 144,0 c 6.49,0 11.77,5.16 11.98,11.6 0.01,-0.2 0.02,-0.4 0.02,-0.6 0,-6.63 -5.37,-12 -12,-12 L 24,36 c -6.63,0 -12,5.37 -12,12 0,0.2 0.01,0.4 0.02,0.6 C 12.23,42.16 17.51,37 24,37 Z"
           id="path3519"
           inkscape:connector-curvature="0"
           style="fill:#ffffff;fill-opacity:0.2" /><path
           clip-path="url(#SVGID_1_)"
           d="m 164,179 -136,0 c -6.49,0 -11.77,-5.16 -11.98,-11.6 -0.01,0.2 -0.02,0.4 -0.02,0.6 0,6.63 5.37,12 12,12 l 136,0 c 6.63,0 12,-5.37 12,-12 0,-0.2 -0.01,-0.4 -0.02,-0.6 -0.21,6.44 -5.49,11.6 -11.98,11.6 z"
           id="path3521"
           inkscape:connector-curvature="0"
           style="fill:#1a237e;fill-opacity:0.2" /><path
           clip-path="url(#SVGID_1_)"
           d="M 160,12 32,12 c -6.63,0 -12,5.37 -12,12 l 0,0.95 C 20.03,18.35 25.39,13 32,13 l 128,0 c 6.63,0 12,5.37 12,12 l 0,-1 c 0,-6.63 -5.37,-12 -12,-12 z"
           id="path3523"
           inkscape:connector-curvature="0"
           style="fill:#ffffff;fill-opacity:0.2" /><g
           clip-path="url(#SVGID_1_)"
           id="g3525"><defs
             id="defs3527"><path
               id="SVGID_14_"
               d="M 168,36 24,36 c -6.63,0 -12,5.37 -12,12 0,0.56 0.04,1.11 0.11,1.64 L 20,108 l 152,0 7.89,-58.36 C 179.96,49.1 180,48.55 180,48 180,41.37 174.63,36 168,36 Z"
               inkscape:connector-curvature="0" /></defs><clipPath
             id="SVGID_3_"><use
               xlink:href="#SVGID_14_"
               overflow="visible"
               id="use3531"
               style="overflow:visible"
               x="0"
               y="0"
               width="100%"
               height="100%" /></clipPath><g
             clip-path="url(#SVGID_3_)"
             id="g3533"><path
               d="m 132.6,72 -25.6,9 0,8.09 18,-6.02 0,60.93 9,0 0,-72 -1.4,0 z M 82.92,107.09 C 87.73,105.1 93.94,99.8 93.94,91.83 93.94,79.55 86.06,72 72.76,72 60.83,72 51.2,79.88 51.2,91.35 l 8.6,0 c 0,-6.74 4.49,-12.33 12.96,-12.33 8.03,0 12.57,4.18 12.57,12.62 0,8.44 -6.46,12.33 -14.33,12.33 -3.09,0 -6,0 -6,0 l 0,6.73 c 0,0 3.33,0 6,0 11.58,0 15.4,6.02 15.4,12.99 0,9.13 -5.55,13.34 -13.58,13.34 -7.11,0 -13.58,-3.84 -13.58,-12.48 l -8.65,0 C 50.73,138.3 62.19,144 72.81,144 84.97,144 95,136.92 95,123.5 95,112.69 87.29,108.37 82.92,107.09 Z"
               id="path3535"
               inkscape:connector-curvature="0"
               style="fill:#e1e1e1" /><g
               id="g3537"
               style="opacity:0.5"><path
                 d="m 132.6,72 -25.6,9 0,8.09 18,-6.02 0,60.93 9,0 0,-72 -1.4,0 z M 82.92,107.09 C 87.73,105.1 93.94,99.8 93.94,91.83 93.94,79.55 86.06,72 72.76,72 60.83,72 51.2,79.88 51.2,91.35 l 8.6,0 c 0,-6.74 4.49,-12.33 12.96,-12.33 8.03,0 12.57,4.18 12.57,12.62 0,8.44 -6.46,12.33 -14.33,12.33 -3.09,0 -6,0 -6,0 l 0,6.73 c 0,0 3.33,0 6,0 11.58,0 15.4,6.02 15.4,12.99 0,9.13 -5.55,13.34 -13.58,13.34 -7.11,0 -13.58,-3.84 -13.58,-12.48 l -8.65,0 C 50.73,138.3 62.19,144 72.81,144 84.97,144 95,136.92 95,123.5 95,112.69 87.29,108.37 82.92,107.09 Z"
                 id="path3539"
                 inkscape:connector-curvature="0"
                 style="fill:#c2c2c2" /></g></g></g><g
           clip-path="url(#SVGID_1_)"
           id="g3541"><defs
             id="defs3543"><path
               id="SVGID_16_"
               d="M 175.97,167.17 172,108 20,108 16.03,167.17 C 16.01,167.45 16,167.72 16,168 c 0,6.63 5.37,12 12,12 l 136,0 c 6.63,0 12,-5.37 12,-12 0,-0.28 -0.01,-0.55 -0.03,-0.83 z"
               inkscape:connector-curvature="0" /></defs><clipPath
             id="SVGID_4_"><use
               xlink:href="#SVGID_16_"
               overflow="visible"
               id="use3547"
               style="overflow:visible"
               x="0"
               y="0"
               width="100%"
               height="100%" /></clipPath><path
             clip-path="url(#SVGID_4_)"
             d="m 132.6,72 -25.6,9 0,8.09 18,-6.02 0,60.93 9,0 0,-72 -1.4,0 z M 82.92,107.09 C 87.73,105.1 93.94,99.8 93.94,91.83 93.94,79.55 86.06,72 72.76,72 60.83,72 51.2,79.88 51.2,91.35 l 8.6,0 c 0,-6.74 4.49,-12.33 12.96,-12.33 8.03,0 12.57,4.18 12.57,12.62 0,8.44 -6.46,12.33 -14.33,12.33 -3.09,0 -6,0 -6,0 l 0,6.73 c 0,0 3.33,0 6,0 11.58,0 15.4,6.02 15.4,12.99 0,9.13 -5.55,13.34 -13.58,13.34 -7.11,0 -13.58,-3.84 -13.58,-12.48 l -8.65,0 C 50.73,138.3 62.19,144 72.81,144 84.97,144 95,136.92 95,123.5 95,112.69 87.29,108.37 82.92,107.09 Z"
             id="path3549"
             inkscape:connector-curvature="0"
             style="fill:#eeeeee" /></g><g
           clip-path="url(#SVGID_1_)"
           id="g3551"><linearGradient
             id="SVGID_5_"
             gradientUnits="userSpaceOnUse"
             x1="57.926899"
             y1="23.926901"
             x2="65.706902"
             y2="31.7069"><stop
               offset="0"
               style="stop-color:#212121;stop-opacity:0.2"
               id="stop3554" /><stop
               offset="1"
               style="stop-color:#212121;stop-opacity:0.02"
               id="stop3556" /></linearGradient><polygon
             points="78.49,36 61.52,36 53.76,28.24 62.24,19.76 "
             id="polygon3558"
             style="fill:url(#SVGID_5_)" /><circle
             cx="58"
             cy="24"
             r="6"
             id="circle3560"
             style="fill:#eeeeee" /><path
             d="m 58,19 c 3.15,0 5.72,2.42 5.97,5.5 C 63.99,24.33 64,24.17 64,24 c 0,-3.31 -2.69,-6 -6,-6 -3.31,0 -6,2.69 -6,6 0,0.17 0.01,0.33 0.03,0.5 C 52.28,21.42 54.85,19 58,19 Z"
             id="path3562"
             inkscape:connector-curvature="0"
             style="fill:#ffffff;fill-opacity:0.4" /><path
             d="M 63.97,24.5 C 63.72,27.58 61.15,30 58,30 54.85,30 52.28,27.58 52.03,24.5 52.01,24.67 52,24.83 52,25 c 0,3.31 2.69,6 6,6 3.31,0 6,-2.69 6,-6 0,-0.17 -0.01,-0.33 -0.03,-0.5 z"
             id="path3564"
             inkscape:connector-curvature="0"
             style="fill:#212121;fill-opacity:0.1" /></g><g
           clip-path="url(#SVGID_1_)"
           id="g3566"><rect
             x="19"
             y="108"
             width="154"
             height="1"
             id="rect3568"
             style="fill:#ffffff;fill-opacity:0.05" /><rect
             x="19"
             y="107"
             width="154"
             height="1"
             id="rect3570"
             style="fill:#1a237e;fill-opacity:0.05" /></g><g
           clip-path="url(#SVGID_1_)"
           id="g3572"><linearGradient
             id="SVGID_6_"
             gradientUnits="userSpaceOnUse"
             x1="133.9269"
             y1="23.926901"
             x2="141.70689"
             y2="31.7069"><stop
               offset="0"
               style="stop-color:#212121;stop-opacity:0.2"
               id="stop3575" /><stop
               offset="1"
               style="stop-color:#212121;stop-opacity:0.02"
               id="stop3577" /></linearGradient><polygon
             points="154.49,36 137.52,36 129.76,28.24 138.24,19.76 "
             id="polygon3579"
             style="fill:url(#SVGID_6_)" /><circle
             cx="134"
             cy="24"
             r="6"
             id="circle3581"
             style="fill:#eeeeee" /><path
             d="m 134,19 c 3.15,0 5.72,2.42 5.97,5.5 0.01,-0.17 0.03,-0.33 0.03,-0.5 0,-3.31 -2.69,-6 -6,-6 -3.31,0 -6,2.69 -6,6 0,0.17 0.01,0.33 0.03,0.5 0.25,-3.08 2.82,-5.5 5.97,-5.5 z"
             id="path3583"
             inkscape:connector-curvature="0"
             style="fill:#ffffff;fill-opacity:0.4" /><path
             d="m 139.97,24.5 c -0.25,3.08 -2.83,5.5 -5.97,5.5 -3.14,0 -5.72,-2.42 -5.97,-5.5 -0.01,0.17 -0.03,0.33 -0.03,0.5 0,3.31 2.69,6 6,6 3.31,0 6,-2.69 6,-6 0,-0.17 -0.01,-0.33 -0.03,-0.5 z"
             id="path3585"
             inkscape:connector-curvature="0"
             style="fill:#212121;fill-opacity:0.1" /></g></g><radialGradient
         id="SVGID_7_"
         cx="23.561199"
         cy="15.7191"
         r="218.58971"
         gradientUnits="userSpaceOnUse"><stop
           offset="0.33"
           style="stop-color:#FFFFFF"
           id="stop3588" /><stop
           offset="1"
           style="stop-color:#FFFFFF;stop-opacity:0"
           id="stop3590" /></radialGradient><path
         d="m 180,48 c 0,-5.22 -3.34,-9.65 -8,-11.3 L 172,24 c 0,-6.63 -5.37,-12 -12,-12 L 32,12 c -6.63,0 -12,5.37 -12,12 l 0.03,12.68 C 15.36,38.32 12,42.76 12,48 c 0,0.56 0.04,1.11 0.11,1.64 L 20,108 l 0,0 -3.97,59.17 C 16.01,167.45 16,167.72 16,168 c 0,6.63 5.37,12 12,12 l 136,0 c 6.63,0 12,-5.37 12,-12 0,-0.28 -0.01,-0.55 -0.03,-0.83 L 172,108 179.89,49.64 C 179.96,49.11 180,48.56 180,48 Z"
         id="path3592"
         inkscape:connector-curvature="0"
         style="fill:url(#SVGID_7_);fill-opacity:0.05" /></g></g></svg>