<svg xmlns="http://www.w3.org/2000/svg" width="29px" height="40px" viewBox="0 0 29 40" version="1.1"><g stroke="none" stroke-width="1" fill="none" fill-rule="evenodd"><g transform="translate(1, 1)"><ellipse stroke="#000000" stroke-width="1.1" fill="#FFFFFF" cx="18.411" cy="27.324" rx="4.411" ry="5.324"/><g transform="translate(5, 35)"><path d="M6.303 3.285C6.366 3.088 6.411 2.885 6.411 2.67 6.411 1.311 5.05 0.207 3.371 0.207 1.692 0.207 0.332 1.311 0.332 2.67 0.332 2.885 0.376 3.088 0.44 3.285L6.303 3.285 6.303 3.285Z" fill="#FFFFFF"/><path d="M6.303 3.285C6.366 3.088 6.411 2.885 6.411 2.67 6.411 1.311 5.05 0.207 3.371 0.207 1.692 0.207 0.332 1.311 0.332 2.67 0.332 2.885 0.376 3.088 0.44 3.285L6.303 3.285 6.303 3.285Z" stroke="#000000" stroke-width="1.1"/></g><g transform="translate(16, 35)"><path d="M5.949 3.285C6.011 3.088 6.056 2.885 6.056 2.67 6.056 1.311 4.695 0.207 3.015 0.207 1.336 0.207-0.024 1.311-0.024 2.67 -0.024 2.885 0.019 3.088 0.083 3.285L5.949 3.285 5.949 3.285Z" fill="#FFFFFF"/><path d="M5.949 3.285C6.011 3.088 6.056 2.885 6.056 2.67 6.056 1.311 4.695 0.207 3.015 0.207 1.336 0.207-0.024 1.311-0.024 2.67 -0.024 2.885 0.019 3.088 0.083 3.285L5.949 3.285 5.949 3.285Z" stroke="#000000" stroke-width="1.1"/></g><circle stroke="#000000" stroke-width="1.1" fill="#FFFFFF" cx="2.702" cy="10.702" r="2.702"/><circle stroke="#000000" stroke-width="1.1" fill="#FFFFFF" cx="24.702" cy="10.702" r="2.702"/><path stroke-linecap="round" stroke-linejoin="round" d="M21.226 1.352C21.226 1.352 21.226 1.352 15.822 0.08L13.836 6.358" stroke="#000000" stroke-width="1.1"/><ellipse stroke="#000000" stroke-width="1.1" fill="#FFFFFF" cx="9.411" cy="27.324" rx="4.411" ry="5.324"/><circle stroke="#000000" stroke-width="1.1" fill="#FFFFFF" cx="23.13" cy="2.13" r="2.13"/><g transform="translate(8, 13)"><path d="M4.181 25.289L7.171 25.289C9.826 23.906 11.795 18.949 11.795 13.027 11.795 6.037 9.055 0.372 5.676 0.372 2.296 0.372-0.443 6.038-0.443 13.027 -0.443 18.949 1.525 23.906 4.181 25.289L4.181 25.289Z" fill="#FFFFFF"/><path d="M4.181 25.289L7.171 25.289C9.826 23.906 11.795 18.949 11.795 13.027 11.795 6.037 9.055 0.372 5.676 0.372 2.296 0.372-0.443 6.038-0.443 13.027 -0.443 18.949 1.525 23.906 4.181 25.289L4.181 25.289Z" stroke="#000000" stroke-width="1.1"/></g><ellipse stroke="#000000" stroke-width="1.1" fill="#FFFFFF" cx="13.238" cy="14.987" rx="12.238" ry="7.987"/><path d="M10.457 38.285L17.053 38.285" stroke="#000000" stroke-width="1.1"/><g transform="translate(8, 12)" stroke-width="1.1"><circle stroke="#FF4500" fill="#FF4500" cx="1.43" cy="1.43" r="1.43"/><circle stroke="#FF4500" fill="#FF4500" cx="10.431" cy="1.431" r="1.431"/><path d="M1.507 6.229C2.573 7.295 4.293 7.5 5.719 7.5" stroke="#000000"/><path d="M9.963 6.229C8.896 7.295 7.177 7.5 5.75 7.5" stroke="#000000"/></g></g></g></svg>
